<svg width="165" height="61" viewBox="0 0 165 61" fill="none" xmlns="http://www.w3.org/2000/svg">
<circle cx="134.5" cy="30.5" r="30" stroke="#E2E2E2"/>
<path d="M148 31H149V29H148V31ZM137 31L148 31V29L137 29V31Z" fill="#388AF3"/>
<path d="M144 36L150 30L144 24" stroke="#388AF3" stroke-width="2"/>
<path d="M7.73125 28.088V23.8H10.2913V35H7.73125V30.552H4.21125V35H1.65125V23.8H4.21125V28.088H7.73125ZM22.4538 35H19.6538L19.0938 33.24H14.9338L14.3738 35H11.5738L15.3818 23.8H18.6458L22.4538 35ZM17.0138 26.728L15.7018 30.84H18.3258L17.0138 26.728ZM28.6119 28.616V23.8H31.1719V35H28.6119V31.096C28.0145 31.3307 27.3799 31.448 26.7079 31.448C25.5559 31.448 24.5959 31.128 23.8279 30.488C23.0705 29.8267 22.6919 28.9307 22.6919 27.8V23.8H25.2519V27.416C25.2519 27.9067 25.3852 28.2907 25.6519 28.568C25.9292 28.8453 26.3025 28.984 26.7719 28.984C27.4225 28.984 28.0359 28.8613 28.6119 28.616ZM43.3281 35H40.5281L39.9681 33.24H35.8081L35.2481 35H32.4481L36.2561 23.8H39.5201L43.3281 35ZM37.8881 26.728L36.5761 30.84H39.2001L37.8881 26.728ZM43.0063 23.8H51.3263V26.264H48.4463V35H45.8863V26.264H43.0063V23.8ZM55.3269 27.32H57.0069C58.1162 27.32 59.0442 27.6933 59.7909 28.44C60.5482 29.1973 60.9269 30.104 60.9269 31.16C60.9269 32.216 60.5482 33.1227 59.7909 33.88C59.0442 34.6267 58.1162 35 57.0069 35H52.7669V23.8H55.3269V27.32ZM55.3269 32.6H57.0069C57.4015 32.6 57.7269 32.4613 57.9829 32.184C58.2389 31.9067 58.3669 31.5653 58.3669 31.16C58.3669 30.7547 58.2389 30.4133 57.9829 30.136C57.7269 29.8587 57.4015 29.72 57.0069 29.72H55.3269V32.6ZM66.8444 23.8H75.3244V35H72.7644V26.264H69.4044V35H66.8444V23.8ZM77.5706 23.8H81.8106C82.92 23.8 83.848 24.1733 84.5946 24.92C85.352 25.6773 85.7306 26.584 85.7306 27.64C85.7306 28.696 85.352 29.6027 84.5946 30.36C83.848 31.1067 82.92 31.48 81.8106 31.48H80.1306V35H77.5706V23.8ZM80.1306 29.08H81.8106C82.2053 29.08 82.5306 28.9413 82.7866 28.664C83.0426 28.3867 83.1706 28.0453 83.1706 27.64C83.1706 27.2347 83.0426 26.8933 82.7866 26.616C82.5306 26.3387 82.2053 26.2 81.8106 26.2H80.1306V29.08ZM96.722 33.544C95.5913 34.664 94.2153 35.224 92.594 35.224C90.9727 35.224 89.5967 34.664 88.466 33.544C87.3353 32.424 86.77 31.0427 86.77 29.4C86.77 27.7573 87.3353 26.376 88.466 25.256C89.5967 24.136 90.9727 23.576 92.594 23.576C94.2153 23.576 95.5913 24.136 96.722 25.256C97.8527 26.376 98.418 27.7573 98.418 29.4C98.418 31.0427 97.8527 32.424 96.722 33.544ZM89.33 29.4C89.33 30.3813 89.6393 31.1813 90.258 31.8C90.8767 32.4187 91.6553 32.728 92.594 32.728C93.522 32.728 94.2953 32.4187 94.914 31.8C95.5433 31.1707 95.858 30.3707 95.858 29.4C95.858 28.4293 95.5433 27.6293 94.914 27C94.2953 26.3813 93.522 26.072 92.594 26.072C91.6553 26.072 90.8767 26.3813 90.258 27C89.6393 27.6187 89.33 28.4187 89.33 29.4ZM102.739 30.552V32.536H107.219V35H100.179V23.8H107.139V26.264H102.739V28.12H106.739V30.552H102.739ZM114.104 29.256L118.04 35H115.128L111.544 29.816V35H108.984V23.8H111.544V28.664L114.968 23.8H117.88L114.104 29.256ZM118.519 23.8H126.839V26.264H123.959V35H121.399V26.264H118.519V23.8Z" fill="#388AF3"/>
</svg>
